<svg id="Capa_1" data-name="Capa 1" xmlns="http://www.w3.org/2000/svg" viewBox="0 0 119.98 125.99">
  <defs>
    <style>
      .cls-1 {
        fill: none;
        stroke: #fbbf36;
        stroke-miterlimit: 10;
        stroke-width: 6px;
      }
    </style>
  </defs>
  <path class="cls-1" d="M155.24,107.48,107.08,63.84a10,10,0,0,0-6.18-2.28,9,9,0,0,0-5.37,1.77C89.72,67.6,49.7,106.48,48.22,108c-1.06.77-4.41,3.48-3.06,6s5.61,2.39,7,2.39l22.92.1L74.63,177A3.63,3.63,0,0,0,76.2,180a8.23,8.23,0,0,0,5.12,1.42l38.43.16c3,0,5.22-.6,6.51-1.82a3.26,3.26,0,0,0,1-3.09l.47-61.32,25,.11c3.07,0,5-.69,5.77-2.07C159.81,111,156.52,108.37,155.24,107.48ZM152.79,112l-29.63-.12-.49,64.91,0,.39a.5.5,0,0,1-.13.46,5.2,5.2,0,0,1-2.82.49L81.34,178c-1.35,0-2-.3-2.08-.86L79.75,113l-27.54-.12a13.89,13.89,0,0,1-2.72-.23,6.35,6.35,0,0,1,2.19-2.41c.42-.41,41.52-40.35,47.11-44.45a3.47,3.47,0,0,1,2.08-.77,4.69,4.69,0,0,1,2.64,1l48.33,43.77a9.62,9.62,0,0,1,2.21,2.12A7.58,7.58,0,0,1,152.79,112Z" transform="translate(-41.84 -58.56)"/>
</svg>
