<?xml version="1.0" encoding="utf-8"?>
<!-- Generator: Adobe Illustrator 22.1.0, SVG Export Plug-In . SVG Version: 6.00 Build 0)  -->
<svg version="1.1" xmlns="http://www.w3.org/2000/svg" xmlns:xlink="http://www.w3.org/1999/xlink" x="0px" y="0px"
	 viewBox="0 0 125 125" style="enable-background:new 0 0 125 125;" xml:space="preserve">
<style type="text/css">
	.st0{display:none;}
	.st1{fill:none;stroke:#FBBF36;stroke-miterlimit:10;}
	.st2{fill:#FBBF36;}
</style>
<g id="Слой_2" class="st0">
	
		<image style="display:inline;overflow:visible;" width="330" height="380" xlink:href="36FAE8C4.jpg"  transform="matrix(0.3407 0 0 0.3407 6 -6)">
	</image>
</g>
<g id="Слой_1">
	<path class="st1" d="M25.2,21c0,0,10-17,24-18.2c14.1-1.2,48.7-4.1,52.2,15.8s1.8,70.9,1.8,70.9s-0.6,25.2-19.3,29.9
		s-54.4-1.8-61-9.4C15.2,101.4,18.1,35.1,25.2,21z"/>
	<g>
		<path class="st2" d="M84.4,73.9c-0.1,0-0.3,0-0.4,0l-18-1.2c-1.8-0.1-3.5-0.9-4.7-2.3s-1.8-3.2-1.7-5L60.4,51l31.8,2.1l-0.9,14.4
			C91,71.1,88,73.9,84.4,73.9z"/>
		<path class="st2" d="M60.9,51.5l30.8,2l-0.9,13.9c-0.2,3.3-3,6-6.4,6c-0.1,0-0.3,0-0.4,0l-18-1.2c-3.5-0.2-6.2-3.3-5.9-6.8
			L60.9,51.5 M59.9,50.5l-1,14.9c-0.3,4,2.8,7.6,6.9,7.8l18,1.2c0.2,0,0.3,0,0.5,0c3.8,0,7.1-3,7.4-6.9l1-14.9L59.9,50.5L59.9,50.5z
			"/>
	</g>
	<g>
		<path class="st2" d="M39.4,70.1c-0.1,0-0.3,0-0.4,0l-18.1-1.2c-1.8-0.1-3.5-0.9-4.7-2.3c-1.2-1.4-1.8-3.2-1.7-5l0.8-12l31.8,2.1
			l-0.8,12C46,67.2,43,70.1,39.4,70.1z"/>
		<path class="st2" d="M15.7,50.1l30.8,2l-0.8,11.5c-0.2,3.3-3,6-6.4,6c-0.1,0-0.3,0-0.4,0l-18.1-1.2c-3.5-0.2-6.2-3.3-5.9-6.8
			L15.7,50.1 M14.7,49l-0.8,12.5c-0.3,4,2.8,7.6,6.9,7.8l18.1,1.2c0.2,0,0.3,0,0.5,0c3.8,0,7.1-3,7.4-6.9l0.8-12.5L14.7,49L14.7,49z
			"/>
	</g>
	<g>
		
			<rect x="50.9" y="13.9" transform="matrix(6.496457e-02 -0.9979 0.9979 6.496457e-02 -2.1253 100.779)" class="st2" width="3.7" height="75.2"/>
		<path class="st2" d="M15.8,47.8l74.1,4.8l-0.2,2.7l-74.1-4.8L15.8,47.8 M14.8,46.7l-0.3,4.7l76.1,5l0.3-4.7L14.8,46.7L14.8,46.7z"
			/>
	</g>
	<g>
		<polygon class="st2" points="90.2,52.3 115.2,36.7 115,40.7 92.2,55.4 		"/>
		<path class="st2" d="M114.6,37.6l-0.1,2.8L92.3,54.7l-1.4-2.3L114.6,37.6 M115.7,35.8L89.5,52.2l2.5,4L115.4,41L115.7,35.8
			L115.7,35.8z"/>
	</g>
</g>
</svg>
