<?xml version="1.0" encoding="utf-8"?>
<!-- Generator: Adobe Illustrator 22.1.0, SVG Export Plug-In . SVG Version: 6.00 Build 0)  -->
<svg version="1.1" xmlns="http://www.w3.org/2000/svg" xmlns:xlink="http://www.w3.org/1999/xlink" x="0px" y="0px"
	 viewBox="0 0 125 125" style="enable-background:new 0 0 125 125;" xml:space="preserve">
<style type="text/css">
	.st0{display:none;}
	.st1{fill:#FBBF36;}
</style>
<g id="Слой_2" class="st0">
	
		<image style="display:inline;overflow:visible;" width="330" height="380" xlink:href="2FA9F96E.jpg"  transform="matrix(0.3407 0 0 0.3407 6 -6)">
	</image>
</g>
<g id="Слой_1">
	<path class="st1" d="M117.4,31.1c-1.3-0.4-2.7,0.4-3.1,1.8l-2.8,10.4l-8-2.1l1.2-4.5c1.2-4.6-1.5-9.4-6.1-10.6l-74-19.8
		C20,4.9,15.2,7.7,14,12.3l-3.8,14.1C9,31,11.7,35.8,16.3,37l74,19.8c4.6,1.2,9.4-1.5,10.6-6.1l1.3-4.8l8,2.1l-5.4,20L53.4,54.3
		c-1.2-0.3-2.5,0.3-2.9,1.5c-0.3,0.3-0.5,0.7-0.6,1.1L35.3,111c-0.4,1.3,0.4,2.7,1.8,3.1s2.7-0.4,3.1-1.8l14.1-52.6L103,73
		c0.2,0.1,2.8,0.6,3,0.6c0.2,0.1,0.4,0.1,0.6,0.1c1.2,0.2,2.5-0.6,2.8-1.8c0.1-0.4,0.6-1.9,0.6-1.9l9.2-35.9
		C119.5,32.8,118.7,31.4,117.4,31.1z"/>
</g>
</svg>
