<svg id="Слой_1" data-name="Слой 1" xmlns="http://www.w3.org/2000/svg" viewBox="0 0 420.57 166.51">
  <defs>
    <style>
      .cls-1 {
        fill: #fbbf36;
      }
    </style>
  </defs>
  <g>
    <path class="cls-1" d="M199.07,174.14a4.89,4.89,0,0,1,1.26,3.41,8.48,8.48,0,0,1-.5,2.53L145.67,331.66q-2.28,4.81-4.17,6.2t-6.2,1.4H111c-2.87,0-4.93-.47-6.2-1.4s-2.65-3-4.17-6.2L46.22,180.08a8.17,8.17,0,0,1-.5-2.53,4.59,4.59,0,0,1,5.06-4.81H78.87q4.8,0,6.83,1.65t3.54,6.45l34.42,104.77,34.16-104.77q1.52-4.8,3.54-6.45t7.09-1.65h26.82A4.89,4.89,0,0,1,199.07,174.14Z" transform="translate(-45.72 -172.74)"/>
    <path class="cls-1" d="M301.42,306.36c1.1,1.18,1.65,3,1.65,5.57v20c0,2.53-.55,4.39-1.65,5.56s-3,1.78-5.69,1.78H224.12q-4.05,0-5.7-1.78c-1.1-1.17-1.64-3-1.64-5.56v-20c0-2.54.54-4.39,1.64-5.57s3-1.77,5.7-1.77h15.94V207.92H224.62q-4.05,0-5.69-1.77t-1.65-5.57v-20.5q0-3.79,1.65-5.56c1.09-1.18,3-1.78,5.69-1.78H295c2.7,0,4.6.6,5.69,1.78s1.65,3,1.65,5.56v20.5q0,3.79-1.65,5.57T295,207.92H279.79v96.67h15.94C298.43,304.59,300.32,305.18,301.42,306.36Z" transform="translate(-45.72 -172.74)"/>
    <path class="cls-1" d="M449.08,188.69q17.21,15.94,17.2,42.76T449,274.09q-17.34,15.82-49.22,15.82H375.44v42c0,2.7-.6,4.59-1.77,5.69s-3,1.65-5.57,1.65H343.05q-3.8,0-5.57-1.65c-1.18-1.1-1.77-3-1.77-5.69V180.08c0-2.53.54-4.38,1.64-5.56s3-1.78,5.7-1.78H400Q431.87,172.74,449.08,188.69ZM420.86,249a22,22,0,0,0,7.21-16.83q0-10.62-7.08-17.2t-21.26-6.58H375.44v47.32h24.29Q413.65,255.75,420.86,249Z" transform="translate(-45.72 -172.74)"/>
  </g>
</svg>
