<svg id="Слой_1" data-name="Слой 1" xmlns="http://www.w3.org/2000/svg" xmlns:xlink="http://www.w3.org/1999/xlink" viewBox="0 0 238.04 238.04"><defs><style>.cls-1{font-size:167.68px;font-family:Archive-Regular, Archive;}.cls-2{fill:url(#Безымянный_градиент_27);}.cls-3{fill:none;stroke-miterlimit:10;stroke-width:26px;stroke:url(#Безымянный_градиент_56);}</style><linearGradient id="Безымянный_градиент_27" x1="221.51" y1="195.35" x2="290.25" y2="314.41" gradientUnits="userSpaceOnUse"><stop offset="0" stop-color="#fdd033"/><stop offset="0.29" stop-color="#f66650"/><stop offset="0.77" stop-color="#ee6d50"/><stop offset="1" stop-color="#ea5657"/></linearGradient><linearGradient id="Безымянный_градиент_56" x1="178.54" y1="15.93" x2="59.5" y2="222.11" gradientUnits="userSpaceOnUse"><stop offset="0" stop-color="#ffef26"/><stop offset="0.51" stop-color="#f08c2a"/><stop offset="1" stop-color="#f66650"/></linearGradient></defs><text class="cls-1" transform="translate(68.3 172.59)">$</text><path class="cls-2" d="M286.27,251.21a28.43,28.43,0,0,1,10.39,9.06q4.53,6.21,4.53,16.77,0,14.58-9,23.39t-24.4,11v12.75a5.3,5.3,0,0,1-1.09,3.69c-.73.78-2,1.17-3.77,1.17H249.88c-1.79,0-3-.39-3.77-1.17a5.3,5.3,0,0,1-1.09-3.69V311.08a49.56,49.56,0,0,1-23.9-11.91q-9.65-8.88-9.64-22.47c0-1.9.34-3.15,1-3.77s1.95-.92,3.85-.92h16.27a9,9,0,0,1,4.53.84c.89.56,1.39,1.84,1.51,3.85a12.44,12.44,0,0,0,3.18,6.88,13.6,13.6,0,0,0,6.79,4.19,33,33,0,0,0,9.64,1.34q7.71,0,12.08-2.43t4.36-9a7.24,7.24,0,0,0-4.36-6.88q-4.36-2.18-13.75-4.36-8.38-2-11.07-2.85a95.36,95.36,0,0,1-17-6.87,31.51,31.51,0,0,1-11.15-10.06Q213,240.32,213,230.25q0-13.41,9-21.63T245,197.89V185a5.27,5.27,0,0,1,1.09-3.69c.72-.78,2-1.17,3.77-1.17H263c1.79,0,3,.39,3.77,1.17a5.27,5.27,0,0,1,1.09,3.69V198.4q13.24,2.67,21.88,10.39t8.64,20c0,2-.31,3.29-.92,3.85s-1.93.84-3.94.84H277a3.48,3.48,0,0,1-2.68-.92,6.07,6.07,0,0,1-1.26-2.1c-.28-.78-.47-1.28-.58-1.51a13.51,13.51,0,0,0-3.52-5,15.74,15.74,0,0,0-6.29-3.35,27.86,27.86,0,0,0-8-1.17,22.23,22.23,0,0,0-10.06,2.34,7.76,7.76,0,0,0-4.69,7.38q0,5.21,6.79,8.38a112.52,112.52,0,0,0,17.86,6.21,30.92,30.92,0,0,1,6.7,2A101.08,101.08,0,0,1,286.27,251.21Z" transform="translate(-136.98 -136.98)"/><circle class="cls-3" cx="119.02" cy="119.02" r="106.02"/></svg>