<svg id="Слой_2" data-name="Слой 2" xmlns="http://www.w3.org/2000/svg" viewBox="0 0 577 550">
  <defs>
    <style>
      .cls-1 {
        fill: #f9deb7;
      }

      .cls-1, .cls-2, .cls-3 {
        opacity: 0.03;
      }

      .cls-2, .cls-4, .cls-5 {
        fill: none;
        stroke: #f9deb7;
        stroke-miterlimit: 10;
      }

      .cls-2 {
        stroke-width: 13px;
      }

      .cls-4, .cls-5 {
        stroke-width: 8px;
      }

      .cls-5 {
        stroke-dasharray: 15.78 12.62;
      }
    </style>
  </defs>
  <path class="cls-1" d="M341.82,293.47l14.87,72-72,14.86a12,12,0,0,0-9.32,14.18l1.42,6.86A12,12,0,0,0,291,410.68l72-14.87,14.86,72A12,12,0,0,0,392,477.12l6.86-1.42a12,12,0,0,0,9.32-14.17l-14.87-72,72-14.86a12,12,0,0,0,9.32-14.18l-1.42-6.86A12,12,0,0,0,459,344.32l-72,14.87-14.86-72A12,12,0,0,0,358,277.88l-6.86,1.42A12,12,0,0,0,341.82,293.47Z" transform="translate(-9.92 -29.5)"/>
  <g id="Слой_3" data-name="Слой 3">
    <polyline class="cls-1" points="115.08 35.83 83.15 88.19 9.08 47.33 47.39 134.17 182.76 134.17 221.08 47.33 147.01 88.19 115.08 35.83"/>
  </g>
  <g id="Слой_4" data-name="Слой 4">
    <path class="cls-1" d="M355.33,158.41l-4.79-3.88a42.49,42.49,0,0,1-8.26-8.9,47.8,47.8,0,0,1-5.67-11.27l13.23-6.64a33.92,33.92,0,0,0,6.42,12.64,29.16,29.16,0,0,0,10.78,8q8.94,3.93,14.89,2.39c4-1,7-3.92,9.08-8.67l0-.06a12.19,12.19,0,0,0,1-8.12,14.35,14.35,0,0,0-3.79-6.41,55.93,55.93,0,0,0-7.67-6.16,1,1,0,0,0-.31-.21,1.22,1.22,0,0,1-.32-.22l-.61-.42-.6-.41a93.07,93.07,0,0,1-12.11-9.55,21.1,21.1,0,0,1-5.81-11q-1.46-6.76,2.71-16.21l0-.06q4.07-9.19,10.07-13.79a23,23,0,0,1,14-4.73q8-.14,18,4.29A46,46,0,0,1,414,73.77a48.65,48.65,0,0,1,7.31,6.53,61.84,61.84,0,0,1,6.33,8.32l-12.44,7.23a43.26,43.26,0,0,0-7-8.7A29.08,29.08,0,0,0,400,81.73q-8.3-3.66-14-2.06t-8.7,8.46l0,.06c-1.39,3.15-1.68,6-.87,8.45a15.41,15.41,0,0,0,4.27,6.59,100.88,100.88,0,0,0,8.75,7l.45.35.51.38.54.39.55.39a64.4,64.4,0,0,1,10.67,9.48,21.83,21.83,0,0,1,5,11.26q1,6.69-2.93,15.7l-.06.12q-3.92,8.88-10,13.24A23.18,23.18,0,0,1,380,165.79q-8.19-.1-18.57-4.69ZM401.9,55.18l12.84,5.66L408.42,75.2l-12.85-5.67Zm-43.5,98.65,12.85,5.66-6.69,15.17L351.72,169Z" transform="translate(-9.92 -29.5)"/>
    <circle class="cls-2" cx="372.58" cy="85" r="78.5"/>
    <g class="cls-3">
      <g>
        <polyline class="cls-4" points="137.85 257.05 135.31 249.99 130.47 255.72"/>
        <line class="cls-5" x1="122.32" y1="265.36" x2="16.44" y2="390.69"/>
        <polyline class="cls-4" points="12.37 395.51 7.53 401.24 14.91 402.56"/>
        <line class="cls-5" x1="27.33" y1="404.8" x2="188.81" y2="433.83"/>
        <polyline class="cls-4" points="195.02 434.95 202.4 436.27 199.86 429.22"/>
        <line class="cls-5" x1="195.58" y1="417.34" x2="139.99" y2="262.98"/>
      </g>
    </g>
  </g>
</svg>
