<?xml version="1.0" encoding="utf-8"?>
<!-- Generator: Adobe Illustrator 22.1.0, SVG Export Plug-In . SVG Version: 6.00 Build 0)  -->
<svg version="1.1" id="Слой_1" xmlns="http://www.w3.org/2000/svg" xmlns:xlink="http://www.w3.org/1999/xlink" x="0px" y="0px"
	 viewBox="0 0 125 125" style="enable-background:new 0 0 125 125;" xml:space="preserve">
<style type="text/css">
	.st0{fill:#EDAC43;}
	.st1{display:none;}
	.st2{display:inline;fill:#D6AD72;}
	.st3{display:inline;fill:#B2874F;}
	.st4{fill:#F9DEB7;}
</style>
<g id="Слой_3">
	<g>
		<rect class="st0" width="125" height="125"/>
	</g>
</g>
<g id="Слой_2_1_" class="st1">
	<rect class="st2" width="125" height="62"/>
	<rect y="62" class="st3" width="125" height="63"/>
</g>
<g id="Слой_1_1_">
	<path class="st4" d="M6.8,45C6.7,44.9,4,20.2,4,20.2l11.7,14.5l12.9-16.1l12.9,16L53,20.3L50.4,45H6.8z"/>
	<g>
		<path class="st4" d="M107.6,30.5v4.1c0,1.2-0.6,1.5-1.5,1.5h-7v7c0,0.9-0.3,1.5-1.5,1.5h-4.1c-1.2,0-1.5-0.6-1.5-1.5v-7h-7.1
			c-0.9,0-1.5-0.3-1.5-1.5v-4.1c0-1.2,0.6-1.5,1.5-1.5H92v-7c0-0.9,0.3-1.5,1.5-1.5h4.1c1.2,0,1.5,0.6,1.5,1.5v7h7
			C107,29,107.6,29.3,107.6,30.5z"/>
	</g>
	<g>
		<path class="st4" d="M40.6,91.5v4.1c0,1.2-0.6,1.5-1.5,1.5h-7v7c0,0.9-0.3,1.5-1.5,1.5h-4.1c-1.2,0-1.5-0.6-1.5-1.5v-7h-7.1
			c-0.9,0-1.5-0.3-1.5-1.5v-4.1c0-1.2,0.6-1.5,1.5-1.5H25v-7c0-0.9,0.3-1.5,1.5-1.5h4.1c1.2,0,1.5,0.6,1.5,1.5v7h7
			C40,90,40.6,90.3,40.6,91.5z"/>
	</g>
	<path class="st4" d="M73.8,108c-0.1-0.1-2.8-24.8-2.8-24.8l11.7,14.5l12.9-16.1l12.9,16L120,83.3l-2.6,24.7H73.8z"/>
</g>
</svg>
